<svg width="65" height="65" viewBox="0 0 65 65" fill="none" xmlns="http://www.w3.org/2000/svg">
<path d="M32.5097 0.000100165C23.8914 0.0087356 15.6284 3.4347 9.53373 9.52634C3.43904 15.618 0.0103873 23.8778 1.8477e-05 32.4935C-0.00650957 38.6281 1.71689 44.606 4.96786 49.7811L5.73817 51.008L2.45456 62.9965L14.7599 59.7726L15.9415 60.4774C20.9519 63.442 26.6679 65.0042 32.4901 65H32.4966C41.1122 64.9879 49.3715 61.5615 55.4642 55.4719C61.5569 49.3822 64.986 41.126 64.9998 32.5131C65.0147 28.2439 64.1823 24.0141 62.5508 20.0687C60.9193 16.1233 58.521 12.5406 55.495 9.5282C52.4845 6.49909 48.9029 4.09721 44.9574 2.46168C41.0118 0.826142 36.7809 -0.0105369 32.5097 0.000100165ZM51.6238 46.4528C50.8078 48.737 46.9041 50.8123 45.0305 51.0929C42.9766 51.4469 40.8683 51.3151 38.8745 50.7078C36.9831 50.1223 35.1243 49.4361 33.3061 48.6521C23.501 44.4232 17.1035 34.5623 16.6074 33.9032C16.1243 33.2505 12.6253 28.604 12.6253 23.8008C12.6253 18.991 15.1451 16.6286 16.0394 15.6497C16.3678 15.2787 16.7692 14.9795 17.2185 14.7706C17.6678 14.5618 18.1553 14.4478 18.6507 14.4358C19.3035 14.4358 19.9497 14.4423 20.5242 14.4684C21.1248 14.4946 21.9277 14.24 22.7176 16.1457C23.5336 18.1035 25.4921 22.9067 25.7336 23.3961C25.9751 23.8791 26.1383 24.4534 25.8184 25.106C25.492 25.7651 25.3354 26.1632 24.8392 26.7375C24.3562 27.3118 23.8143 28.0101 23.377 28.4539C22.8874 28.9368 22.3782 29.4654 22.9461 30.4443C23.5206 31.4167 25.479 34.621 28.3774 37.2119C32.1115 40.5402 35.2645 41.5648 36.2372 42.0608C37.2164 42.5437 37.7844 42.4719 38.3588 41.8128C38.9268 41.1536 40.8003 38.9609 41.4531 37.9885C42.1059 37.0096 42.7522 37.1727 43.6531 37.4925C44.5474 37.8253 49.3521 40.1813 50.3247 40.6707C51.2909 41.1536 51.9502 41.4016 52.1983 41.8128C52.4333 42.2174 52.4333 44.1687 51.6238 46.4528Z" fill="white"/>
</svg>
