<svg width="59" height="59" viewBox="0 0 59 59" fill="none" xmlns="http://www.w3.org/2000/svg">
<path d="M29.4319 14.302C25.4201 14.302 21.5727 15.8957 18.736 18.7324C15.8993 21.5691 14.3057 25.4165 14.3057 29.4282C14.3057 33.4399 15.8993 37.2873 18.736 40.124C21.5727 42.9607 25.4201 44.5544 29.4319 44.5544C33.4436 44.5544 37.291 42.9607 40.1277 40.124C42.9644 37.2873 44.558 33.4399 44.558 29.4282C44.558 25.4165 42.9644 21.5691 40.1277 18.7324C37.291 15.8957 33.4436 14.302 29.4319 14.302ZM29.4319 39.2517C26.8256 39.2517 24.3261 38.2164 22.4833 36.3735C20.6404 34.5306 19.6051 32.0312 19.6051 29.4249C19.6051 26.8187 20.6404 24.3192 22.4833 22.4763C24.3261 20.6335 26.8256 19.5981 29.4319 19.5981C32.0381 19.5981 34.5376 20.6335 36.3804 22.4763C38.2233 24.3192 39.2586 26.8187 39.2586 29.4249C39.2586 32.0312 38.2233 34.5306 36.3804 36.3735C34.5376 38.2164 32.0381 39.2517 29.4319 39.2517Z" fill="white"/>
<path d="M45.1563 17.2725C47.1038 17.2725 48.6827 15.6937 48.6827 13.7461C48.6827 11.7985 47.1038 10.2197 45.1563 10.2197C43.2087 10.2197 41.6299 11.7985 41.6299 13.7461C41.6299 15.6937 43.2087 17.2725 45.1563 17.2725Z" fill="white"/>
<path d="M57.348 10.1605C56.5907 8.20485 55.4335 6.4289 53.9503 4.9463C52.4671 3.4637 50.6908 2.30711 48.7349 1.55057C46.4461 0.691398 44.0281 0.226831 41.5839 0.176646C38.4337 0.0392545 37.436 0 29.4477 0C21.4593 0 20.4354 -3.2903e-07 17.3114 0.176646C14.869 0.224265 12.4528 0.688927 10.167 1.55057C8.21059 2.30623 6.43375 3.46251 4.95047 4.94522C3.46719 6.42793 2.31024 8.20434 1.55384 10.1605C0.694499 12.4491 0.230997 14.8672 0.183189 17.3114C0.042526 20.4583 0 21.456 0 29.4477C0 37.436 -2.43726e-08 38.4534 0.183189 41.5839C0.232258 44.0308 0.693502 46.445 1.55384 48.7381C2.31236 50.6936 3.47044 52.4692 4.95408 53.9518C6.43771 55.4343 8.21428 56.591 10.1703 57.348C12.4517 58.2417 14.869 58.7395 17.3179 58.8201C20.4681 58.9575 21.4658 59 29.4542 59C37.4426 59 38.4665 59 41.5905 58.8201C44.0344 58.7704 46.4523 58.3069 48.7414 57.4494C50.6968 56.6911 52.4727 55.5335 53.9557 54.0505C55.4387 52.5675 56.5963 50.7917 57.3546 48.8363C58.2149 46.5464 58.6762 44.1322 58.7252 41.6854C58.8659 38.5384 58.9084 37.5407 58.9084 29.5491C58.9084 21.5574 58.9084 20.5434 58.7252 17.4128C58.6871 14.9341 58.2212 12.4806 57.348 10.1605ZM53.3637 41.3419C53.3426 43.2271 52.9985 45.0948 52.3463 46.8637C51.8551 48.1358 51.103 49.291 50.1385 50.2549C49.1739 51.2189 48.0183 51.9703 46.746 52.4608C44.9966 53.11 43.1488 53.4541 41.283 53.4782C38.1753 53.6221 37.2986 53.6581 29.3299 53.6581C21.3546 53.6581 20.5401 53.6581 17.3735 53.4782C15.5087 53.4553 13.6617 53.1112 11.9138 52.4608C10.637 51.9733 9.47678 51.2233 8.50812 50.2591C7.53947 49.295 6.784 48.1382 6.29059 46.8637C5.64761 45.1138 5.30369 43.2681 5.27323 41.404C5.13257 38.2964 5.09986 37.4197 5.09986 29.4509C5.09986 21.4789 5.09986 20.6644 5.27323 17.4946C5.29438 15.6104 5.63848 13.7438 6.29059 11.976C7.28831 9.39499 9.33284 7.36355 11.9138 6.37564C13.6626 5.72839 15.509 5.38433 17.3735 5.35828C20.4845 5.21762 21.3579 5.17836 29.3299 5.17836C37.3019 5.17836 38.1197 5.17837 41.283 5.35828C43.1489 5.38073 44.997 5.72489 46.746 6.37564C48.0182 6.86722 49.1737 7.61937 50.1381 8.58382C51.1026 9.54827 51.8547 10.7037 52.3463 11.976C52.9893 13.7259 53.3332 15.5716 53.3637 17.4357C53.5043 20.5466 53.5403 21.42 53.5403 29.392C53.5403 37.3608 53.5403 38.2178 53.3996 41.3451H53.3637V41.3419Z" fill="white"/>
</svg>
